<svg xmlns="http://www.w3.org/2000/svg" viewBox="0 0 64 64">
  <!-- Document -->
  <path d="M12 4h26l14 14v38a4 4 0 0 1-4 4H12a4 4 0 0 1-4-4V8a4 4 0 0 1 4-4z" fill="#e94560"/>
  <!-- Corner fold -->
  <path d="M38 4v10a4 4 0 0 0 4 4h10z" fill="#c73650"/>
  <!-- Text lines -->
  <rect x="16" y="26" width="14" height="2.5" rx="1.25" fill="rgba(255,255,255,0.4)"/>
  <rect x="16" y="33" width="22" height="2.5" rx="1.25" fill="rgba(255,255,255,0.4)"/>
  <rect x="16" y="40" width="18" height="2.5" rx="1.25" fill="rgba(255,255,255,0.4)"/>
  <rect x="16" y="47" width="10" height="2.5" rx="1.25" fill="rgba(255,255,255,0.4)"/>
  <!-- Pencil body -->
  <path d="M40 50L54 36l4 4L44 54z" fill="#ffd700"/>
  <!-- Pencil eraser -->
  <path d="M54 36l3-3a3 3 0 0 1 4 4l-3 3z" fill="#f0c000"/>
  <!-- Pencil tip -->
  <path d="M37 57L40 50L44 54z" fill="#555"/>
</svg>
